<?xml version="1.0" encoding="UTF-8" standalone="no"?>
<svg
   xmlns:dc="http://purl.org/dc/elements/1.1/"
   xmlns:cc="http://creativecommons.org/ns#"
   xmlns:rdf="http://www.w3.org/1999/02/22-rdf-syntax-ns#"
   xmlns:svg="http://www.w3.org/2000/svg"
   xmlns="http://www.w3.org/2000/svg"
   viewBox="0 0 522.33331 659.33331"
   height="659.33331"
   width="522.33331"
   xml:space="preserve"
   id="svg2"
   version="1.1"><metadata
     id="metadata8"><rdf:RDF><cc:Work
         rdf:about=""><dc:format>image/svg+xml</dc:format><dc:type
           rdf:resource="http://purl.org/dc/dcmitype/StillImage" /></cc:Work></rdf:RDF></metadata><defs
     id="defs6" /><g
     transform="matrix(1.3333333,0,0,-1.3333333,0,659.33333)"
     id="g10"><g
       transform="scale(0.1)"
       id="g12"><path
         id="path14"
         style="fill:none;stroke:#231f20;stroke-width:10;stroke-linecap:butt;stroke-linejoin:miter;stroke-miterlimit:1;stroke-dasharray:none;stroke-opacity:1"
         d="M 3044.41,2475.39 C 3043.12,3892.44 908.371,3892.93 911.793,2475.89 912.949,1058.84 3047.7,1058.15 3044.41,2475.2 Z" /><path
         id="path16"
         style="fill:#ffffff;fill-opacity:1;fill-rule:evenodd;stroke:none"
         d="M 1289.86,1.66797 2024.9,2079.49 1899,2275.7 1289.86,1.66797 v 0" /><path
         id="path18"
         style="fill:none;stroke:#231f20;stroke-width:10;stroke-linecap:butt;stroke-linejoin:miter;stroke-miterlimit:1;stroke-dasharray:none;stroke-opacity:1"
         d="M 1289.86,1.66797 2024.9,2079.49 1899,2275.7 1289.86,1.66797 Z" /><path
         id="path20"
         style="fill:#231f20;fill-opacity:1;fill-rule:evenodd;stroke:none"
         d="M 1287.14,4.38281 1689.16,2171.42 1896.29,2278.41 1287.14,4.38281 v 0" /><path
         id="path22"
         style="fill:none;stroke:#231f20;stroke-width:10;stroke-linecap:butt;stroke-linejoin:miter;stroke-miterlimit:1;stroke-dasharray:none;stroke-opacity:1"
         d="M 1287.14,4.38281 1689.16,2171.42 1896.29,2278.41 1287.14,4.38281 Z" /><path
         id="path24"
         style="fill:#ffffff;fill-opacity:1;fill-rule:evenodd;stroke:none"
         d="m 2608.57,4943.34 -735.01,-2077.75 125.9,-196.2 609.11,2273.95 v 0" /><path
         id="path26"
         style="fill:none;stroke:#231f20;stroke-width:10;stroke-linecap:butt;stroke-linejoin:miter;stroke-miterlimit:1;stroke-dasharray:none;stroke-opacity:1"
         d="m 2608.57,4943.34 -735.01,-2077.75 125.9,-196.2 609.11,2273.95 z" /><path
         id="path28"
         style="fill:#231f20;fill-opacity:1;fill-rule:evenodd;stroke:none"
         d="m 2611.28,4940.63 -401.99,-2166.96 -207.11,-107 609.1,2273.96 v 0" /><path
         id="path30"
         style="fill:none;stroke:#231f20;stroke-width:10;stroke-linecap:butt;stroke-linejoin:miter;stroke-miterlimit:1;stroke-dasharray:none;stroke-opacity:1"
         d="m 2611.28,4940.63 -401.99,-2166.96 -207.11,-107 609.1,2273.96 z" /><path
         id="path32"
         style="fill:#ffffff;fill-opacity:1;fill-rule:evenodd;stroke:none"
         d="M 1.80078,2991.54 1556.21,2391.45 1752.39,2517.34 1.80078,2991.54 v 0" /><path
         id="path34"
         style="fill:none;stroke:#231f20;stroke-width:10;stroke-linecap:butt;stroke-linejoin:miter;stroke-miterlimit:1;stroke-dasharray:none;stroke-opacity:1"
         d="M 1.80078,2991.54 1556.21,2391.45 1752.39,2517.34 1.80078,2991.54 Z" /><path
         id="path36"
         style="fill:#ffffff;fill-opacity:1;fill-rule:evenodd;stroke:none"
         d="M 3915.67,1945.4 2361.26,2545.49 2165.08,2419.6 3915.67,1945.4 v 0" /><path
         id="path38"
         style="fill:none;stroke:#231f20;stroke-width:10;stroke-linecap:butt;stroke-linejoin:miter;stroke-miterlimit:1;stroke-dasharray:none;stroke-opacity:1"
         d="M 3915.67,1945.4 2361.26,2545.49 2165.08,2419.6 3915.67,1945.4 Z" /><path
         id="path40"
         style="fill:#231f20;fill-opacity:1;fill-rule:evenodd;stroke:none"
         d="M 5.55469,2988.7 1648.11,2727.17 1755.1,2520.06 5.55469,2988.7 v 0" /><path
         id="path42"
         style="fill:none;stroke:#231f20;stroke-width:10;stroke-linecap:butt;stroke-linejoin:miter;stroke-miterlimit:1;stroke-dasharray:none;stroke-opacity:1"
         d="M 5.55469,2988.7 1648.11,2727.17 1755.1,2520.06 5.55469,2988.7 Z" /><path
         id="path44"
         style="fill:#231f20;fill-opacity:1;fill-rule:evenodd;stroke:none"
         d="m 3911.91,1948.24 -1642.55,261.53 -106.99,207.11 1749.54,-468.64 v 0" /><path
         id="path46"
         style="fill:none;stroke:#231f20;stroke-width:10;stroke-linecap:butt;stroke-linejoin:miter;stroke-miterlimit:1;stroke-dasharray:none;stroke-opacity:1"
         d="m 3911.91,1948.24 -1642.55,261.53 -106.99,207.11 1749.54,-468.64 z" /><path
         id="path48"
         style="fill:#ffffff;fill-opacity:1;fill-rule:evenodd;stroke:none"
         d="m 2650.28,1267.32 -474.51,994.37 -113.86,24.87 588.37,-1019.24 v 0" /><path
         id="path50"
         style="fill:none;stroke:#231f20;stroke-width:10;stroke-linecap:butt;stroke-linejoin:miter;stroke-miterlimit:1;stroke-dasharray:none;stroke-opacity:1"
         d="m 2650.28,1267.32 -474.51,994.37 -113.86,24.87 588.37,-1019.24 z" /><path
         id="path52"
         style="fill:#231f20;fill-opacity:1;fill-rule:evenodd;stroke:none"
         d="m 2650.28,1267.32 -623.78,908.21 35.41,111.03 588.37,-1019.24 v 0" /><path
         id="path54"
         style="fill:none;stroke:#231f20;stroke-width:10;stroke-linecap:butt;stroke-linejoin:miter;stroke-miterlimit:1;stroke-dasharray:none;stroke-opacity:1"
         d="m 2650.28,1267.32 -623.78,908.21 35.41,111.03 588.37,-1019.24 z" /><path
         id="path56"
         style="fill:#ffffff;fill-opacity:1;fill-rule:evenodd;stroke:none"
         d="m 3157.13,3168.16 -994.34,-474.52 -24.86,-113.85 1019.2,588.37 v 0" /><path
         id="path58"
         style="fill:none;stroke:#231f20;stroke-width:10;stroke-linecap:butt;stroke-linejoin:miter;stroke-miterlimit:1;stroke-dasharray:none;stroke-opacity:1"
         d="m 3157.13,3168.16 -994.34,-474.52 -24.86,-113.85 1019.2,588.37 z" /><path
         id="path60"
         style="fill:#231f20;fill-opacity:1;fill-rule:evenodd;stroke:none"
         d="m 3157.13,3168.16 -908.17,-623.77 -111.03,35.4 1019.2,588.37 v 0" /><path
         id="path62"
         style="fill:none;stroke:#231f20;stroke-width:10;stroke-linecap:butt;stroke-linejoin:miter;stroke-miterlimit:1;stroke-dasharray:none;stroke-opacity:1"
         d="m 3157.13,3168.16 -908.17,-623.77 -111.03,35.4 1019.2,588.37 z" /><path
         id="path64"
         style="fill:#ffffff;fill-opacity:1;fill-rule:evenodd;stroke:none"
         d="m 1259.04,3669.61 474.52,-994.36 113.86,-24.87 -588.38,1019.23 v 0" /><path
         id="path66"
         style="fill:none;stroke:#231f20;stroke-width:10;stroke-linecap:butt;stroke-linejoin:miter;stroke-miterlimit:1;stroke-dasharray:none;stroke-opacity:1"
         d="m 1259.04,3669.61 474.52,-994.36 113.86,-24.87 -588.38,1019.23 z" /><path
         id="path68"
         style="fill:#231f20;fill-opacity:1;fill-rule:evenodd;stroke:none"
         d="m 1259.04,3669.61 623.78,-908.2 -35.4,-111.03 -588.38,1019.23 v 0" /><path
         id="path70"
         style="fill:none;stroke:#231f20;stroke-width:10;stroke-linecap:butt;stroke-linejoin:miter;stroke-miterlimit:1;stroke-dasharray:none;stroke-opacity:1"
         d="m 1259.04,3669.61 623.78,-908.2 -35.4,-111.03 -588.38,1019.23 z" /><path
         id="path72"
         style="fill:#ffffff;fill-opacity:1;fill-rule:evenodd;stroke:none"
         d="m 757.625,1776.93 994.335,474.51 24.86,113.86 -1019.195,-588.37 v 0" /><path
         id="path74"
         style="fill:none;stroke:#231f20;stroke-width:10;stroke-linecap:butt;stroke-linejoin:miter;stroke-miterlimit:1;stroke-dasharray:none;stroke-opacity:1"
         d="m 757.625,1776.93 994.335,474.51 24.86,113.86 -1019.195,-588.37 z" /><path
         id="path76"
         style="fill:#231f20;fill-opacity:1;fill-rule:evenodd;stroke:none"
         d="m 757.625,1776.93 908.165,623.77 111.03,-35.4 -1019.195,-588.37 v 0" /><path
         id="path78"
         style="fill:none;stroke:#231f20;stroke-width:10;stroke-linecap:butt;stroke-linejoin:miter;stroke-miterlimit:1;stroke-dasharray:none;stroke-opacity:1"
         d="M 757.625,1776.93 1665.79,2400.7 1776.82,2365.3 757.625,1776.93 Z" /><path
         id="path80"
         style="fill:#ffffff;fill-opacity:1;fill-rule:evenodd;stroke:none"
         d="m 2173.56,2473.19 c -2.02,283.84 -434.17,283.94 -431.71,0.09 1.99,-283.84 434.15,-283.98 431.72,-0.13 l -0.01,0.04" /><path
         id="path82"
         style="fill:none;stroke:#231f20;stroke-width:10;stroke-linecap:butt;stroke-linejoin:miter;stroke-miterlimit:1;stroke-dasharray:none;stroke-opacity:1"
         d="m 2173.56,2473.19 c -2.02,283.84 -434.17,283.94 -431.71,0.09 1.99,-283.84 434.15,-283.98 431.72,-0.13 z" /><path
         id="path84"
         style="fill:#ffffff;fill-opacity:1;fill-rule:evenodd;stroke:none"
         d="m 1946.55,2558.46 c 27.02,37.52 -70.17,37.54 -97.1,0.01 -27.02,-37.52 70.17,-37.53 97.09,-0.01 h 0.01" /><path
         id="path86"
         style="fill:none;stroke:#231f20;stroke-width:10;stroke-linecap:butt;stroke-linejoin:miter;stroke-miterlimit:1;stroke-dasharray:none;stroke-opacity:1"
         d="m 1946.55,2558.46 c 27.02,37.52 -70.17,37.54 -97.1,0.01 -27.02,-37.52 70.17,-37.53 97.09,-0.01 z" /></g></g></svg>